<svg xmlns="http://www.w3.org/2000/svg" viewBox="0 0 192.68 67.84"><defs><style>.cls-1{fill:#4b4a4b;}.cls-2{fill:#848585;}</style></defs><title>logo_1</title><g id="Layer_2" data-name="Layer 2"><g id="Layer_1-2" data-name="Layer 1"><polygon class="cls-1" points="18 0 0 0 0 18 0 49.84 0 67.84 18 67.84 40.4 67.84 40.4 49.84 18 49.84 18 18 56.17 18 56.17 67.84 74.17 67.84 74.17 0 56.17 0 18 0"/><polygon class="cls-1" points="146.13 0 123.73 0 123.73 18 146.13 18 146.13 49.84 107.95 49.84 107.95 0 89.95 0 89.95 67.84 107.95 67.84 146.13 67.84 164.13 67.84 164.13 49.84 164.13 18 164.13 0 146.13 0"/><path class="cls-2" d="M179.53,30.45a7.51,7.51,0,0,1-1.85-5.51V14.74A1.1,1.1,0,0,1,178,14a1,1,0,0,1,.78-.3,1,1,0,0,1,.75.3,1.1,1.1,0,0,1,.29.79V25.12a5.56,5.56,0,0,0,1.31,4,6.18,6.18,0,0,0,7.71,0,5.64,5.64,0,0,0,1.3-4V14.74a1.06,1.06,0,0,1,.3-.79A1.14,1.14,0,0,1,192,14a1.1,1.1,0,0,1,.29.79v10.2a7.49,7.49,0,0,1-1.86,5.49,8.77,8.77,0,0,1-10.85,0Z"/><path class="cls-2" d="M192.68,53.23a.91.91,0,0,1-.31.7,1,1,0,0,1-.73.28,1,1,0,0,1-.75-.36L185,46.28l-6,7.57a.94.94,0,0,1-.76.36,1,1,0,0,1-.7-.29.92.92,0,0,1-.31-.69,1,1,0,0,1,.23-.65l6.24-7.83-5.9-7.43a1,1,0,0,1-.26-.68.91.91,0,0,1,.3-.68,1,1,0,0,1,.69-.28.94.94,0,0,1,.75.39L185,43.24l5.64-7.17a.94.94,0,0,1,.76-.39,1,1,0,0,1,.7.3.93.93,0,0,1,.31.71,1,1,0,0,1-.23.63l-5.93,7.43,6.21,7.83A.94.94,0,0,1,192.68,53.23Z"/></g></g></svg>